<?xml version="1.0"?>
<svg xmlns="http://www.w3.org/2000/svg" xmlns:xlink="http://www.w3.org/1999/xlink" xmlns:svgjs="http://svgjs.com/svgjs" version="1.1" width="512" height="512" x="0" y="0" viewBox="0 0 504.47 504.47" style="enable-background:new 0 0 512 512" xml:space="preserve" class=""><g><path xmlns="http://www.w3.org/2000/svg" id="XMLID_1491_" d="m461.9 320.341v-42.285l42.57-55.168-18.085-76.104-233.959-91.804-233.886 91.776-18.54 75.27 42.424 55.671v42.688c-8.638 2.159-16.252 6.904-21.397 13.596-6.088 7.918-8.146 17.849-5.646 27.247 7.641 28.73 27.079 53.479 54.734 69.687 27.651 16.206 60.779 22.081 93.279 16.545l53.294-9.079c23.599-4.021 47.528-4.021 71.127 0l53.294 9.079c7.979 1.359 15.989 2.03 23.953 2.03 24.477 0 48.463-6.348 69.326-18.575 27.655-16.208 47.094-40.956 54.734-69.687 2.499-9.398.441-19.329-5.646-27.247-5.181-6.738-12.864-11.502-21.576-13.64zm-389.476-32.708h359.476v31.438h-359.476zm-28.469-118.623 208.471-81.803 208.398 81.775 11.148 46.914-32.207 41.738h-374.912l-32.29-42.372zm416.175 184.509c-11.953 44.946-62.021 73.224-113.983 64.367l-53.293-9.079c-26.941-4.59-54.262-4.59-81.204 0l-53.294 9.079c-51.963 8.851-102.03-19.422-113.983-64.367-.05-.189-.135-.507.438-1.251 1.134-1.475 3.972-3.197 8.239-3.197h398.403c4.268 0 7.105 1.722 8.239 3.197.573.743.488 1.061.438 1.251z" fill="#fefefe" data-original="#000000" style=""/><path xmlns="http://www.w3.org/2000/svg" id="XMLID_1496_" d="m251.213 242.372h2.427c28.415 0 51.532-23.117 51.532-51.532v-58.642h-105.491v58.642c0 28.415 23.117 51.532 51.532 51.532zm-21.532-80.174h45.491v28.642c0 11.873-9.659 21.532-21.532 21.532h-2.427c-11.873 0-21.532-9.659-21.532-21.532z" fill="#fefefe" data-original="#000000" style=""/></g></svg>
